<?xml version="1.0" encoding="UTF-8"?>
<svg xmlns="http://www.w3.org/2000/svg" xmlns:xlink="http://www.w3.org/1999/xlink" width="1440pt" height="809.999993pt" viewBox="0 0 1440 809.999993" version="1.2">
<g id="surface1">
<path style="fill:none;stroke-width:1;stroke-linecap:butt;stroke-linejoin:miter;stroke:rgb(100%,27.839661%,8.628845%);stroke-opacity:1;stroke-miterlimit:4;" d="M 0.00000106597 0.00000469005 L 10.604394 -0.00000826989 " transform="matrix(45.945434,-61.197679,61.466409,46.147186,215.253569,903.370943)"/>
<path style="fill:none;stroke-width:1;stroke-linecap:butt;stroke-linejoin:miter;stroke:rgb(100%,27.839661%,8.628845%);stroke-opacity:1;stroke-miterlimit:4;" d="M -0.00000364021 -0.00000497387 L 8.259472 -0.00000482743 " transform="matrix(-94.853652,-65.909147,65.665309,-94.502726,1409.281231,893.827415)"/>
<path style="fill:none;stroke-width:1;stroke-linecap:butt;stroke-linejoin:miter;stroke:rgb(100%,27.839661%,8.628845%);stroke-opacity:1;stroke-miterlimit:4;" d="M 0.0000207873 -0.00000675444 L 10.604414 -0.0000197144 " transform="matrix(45.945434,-61.197679,61.466409,46.147186,155.710398,858.017209)"/>
<path style="fill:none;stroke-width:1;stroke-linecap:butt;stroke-linejoin:miter;stroke:rgb(100%,27.839661%,8.628845%);stroke-opacity:1;stroke-miterlimit:4;" d="M 0.000015948 -0.00000527701 L 8.824961 -0.00000214674 " transform="matrix(-93.484579,-67.825281,67.578388,-93.144291,1435.41591,856.574809)"/>
<path style="fill:none;stroke-width:1;stroke-linecap:butt;stroke-linejoin:miter;stroke:rgb(3.919983%,39.608765%,100%);stroke-opacity:1;stroke-miterlimit:4;" d="M 0.0000138836 -0.000000673418 L 15.059464 -0.00000800282 " transform="matrix(62.144044,41.995047,-41.993304,62.141466,582.061609,0.265084)"/>
<path style="fill:none;stroke-width:1;stroke-linecap:butt;stroke-linejoin:miter;stroke:rgb(3.919983%,39.608765%,100%);stroke-opacity:1;stroke-miterlimit:4;" d="M -0.000000745578 0.0000309226 L 15.038432 0.0000288809 " transform="matrix(45.681142,-59.492875,59.486695,45.676392,-72.587743,885.346199)"/>
</g>
</svg>
